<!-- <svg fill="#FFC107" width="22px" height="22px" viewBox="-19.2 -19.2 102.40 102.40" version="1.1" xml:space="preserve" xmlns="http://www.w3.org/2000/svg" xmlns:xlink="http://www.w3.org/1999/xlink" stroke="#FFC107" stroke-width="1.408"><g id="SVGRepo_bgCarrier" stroke-width="0"></g><g id="SVGRepo_tracerCarrier" stroke-linecap="round" stroke-linejoin="round" stroke="#CCCCCC" stroke-width="0.128"></g><g id="SVGRepo_iconCarrier"> <g id="_x32_5_attachment"></g> <g id="_x32_4_office"></g> <g id="_x32_3_pin"></g> <g id="_x32_2_business_card"></g> <g id="_x32_1_form"></g> <g id="_x32_0_headset"></g> <g id="_x31_9_video_call"></g> <g id="_x31_8_letter_box"></g> <g id="_x31_7_papperplane"> <g> <g> <path d="M62.9891,2.5618c-0.0765-0.5779-0.6611-0.9805-1.2299-0.8401L7.4043,15.2065c-0.3535,0.0879-0.6318,0.3608-0.7256,0.7129 s0.0112,0.7275,0.2744,0.9795l13.9343,13.3583l-2.7649,17.1495c-0.1079,0.6712,0.4969,1.2576,1.1582,1.1445l18.0805-3.1324 l17.1832,9.6988c0.1523,0.0859,0.3218,0.1289,0.4917,0.1289c0.1523,0,0.3047-0.0347,0.4453-0.1045 c0.2969-0.1475,0.5015-0.4331,0.5459-0.7617l6.9639-51.5542C63.0031,2.7372,63.0007,2.6487,62.9891,2.5618z M9.647,16.7109 L56.8914,4.9902L22.2545,28.7978L9.647,16.7109z M36.9146,43.4663l-16.5942,2.875l2.4995-15.5054L58.8633,6.0615L36.9146,43.4663 z M54.2427,52.6504l-15.3231-8.6492l21.4231-36.509L54.2427,52.6504z"></path> <path d="M14.4438,51.6099l-4.6948,5.209c-0.3701,0.4102-0.3369,1.0425,0.0732,1.4121c0.1909,0.1724,0.4307,0.2573,0.6689,0.2573 c0.2734,0,0.5459-0.1113,0.7432-0.3306l4.6948-5.209c0.3701-0.4102,0.3369-1.0425-0.0732-1.4121 C15.4463,51.1675,14.8135,51.2002,14.4438,51.6099z"></path> <path d="M5.9478,29.0562l-4.6909,5.2085c-0.3696,0.4106-0.3364,1.043,0.0742,1.4126c0.1909,0.1719,0.4302,0.2568,0.6685,0.2568 c0.2739,0,0.5459-0.1113,0.7437-0.3311l4.6909-5.2085c0.3696-0.4106,0.3364-1.043-0.0742-1.4126 C6.9487,28.6128,6.3179,28.6455,5.9478,29.0562z"></path> <path d="M40.8164,55.4331l-4.6909,5.2051c-0.3701,0.4102-0.3369,1.0425,0.0732,1.4121c0.1909,0.1724,0.4307,0.2573,0.6689,0.2573 c0.2734,0,0.5459-0.1113,0.7432-0.3306l4.6909-5.2051c0.3701-0.4102,0.3369-1.0425-0.0732-1.4121 C41.8188,54.9907,41.186,55.0234,40.8164,55.4331z"></path> </g> </g> </g> <g id="_x31_6_laptop"></g> <g id="_x31_5_connection"></g> <g id="_x31_4_phonebook"></g> <g id="_x31_3_classic_telephone"></g> <g id="_x31_2_sending_mail"></g> <g id="_x31_1_man_talking"></g> <g id="_x31_0_date"></g> <g id="_x30_9_review"></g> <g id="_x30_8_email"></g> <g id="_x30_7_information"></g> <g id="_x30_6_phone_talking"></g> <g id="_x30_5_women_talking"></g> <g id="_x30_4_calling"></g> <g id="_x30_3_women"></g> <g id="_x30_2_writing"></g> <g id="_x30_1_chatting"></g> </g></svg> -->
<svg width="64px" height="64px" viewBox="0 0 24.00 24.00" fill="none" xmlns="http://www.w3.org/2000/svg" stroke="#FFC107" stroke-width="0.00024000000000000003"><g id="SVGRepo_bgCarrier" stroke-width="0"></g><g id="SVGRepo_tracerCarrier" stroke-linecap="round" stroke-linejoin="round"></g><g id="SVGRepo_iconCarrier"> <path fill-rule="evenodd" clip-rule="evenodd" d="M14 5C13.4477 5 13 5.44772 13 6C13 6.27642 13.1108 6.52505 13.2929 6.70711C13.475 6.88917 13.7236 7 14 7C14.5523 7 15 6.55228 15 6C15 5.44772 14.5523 5 14 5ZM11 6C11 4.34315 12.3431 3 14 3C15.6569 3 17 4.34315 17 6C17 7.65685 15.6569 9 14 9C13.5372 9 13.0984 8.8948 12.7068 8.70744L10.7074 10.7068C10.8948 11.0984 11 11.5372 11 12C11 12.4628 10.8948 12.9016 10.7074 13.2932L12.7068 15.2926C13.0984 15.1052 13.5372 15 14 15C15.6569 15 17 16.3431 17 18C17 19.6569 15.6569 21 14 21C12.3431 21 11 19.6569 11 18C11 17.5372 11.1052 17.0984 11.2926 16.7068L9.29323 14.7074C8.90157 14.8948 8.46277 15 8 15C6.34315 15 5 13.6569 5 12C5 10.3431 6.34315 9 8 9C8.46277 9 8.90157 9.1052 9.29323 9.29256L11.2926 7.29323C11.1052 6.90157 11 6.46277 11 6ZM8 11C7.44772 11 7 11.4477 7 12C7 12.5523 7.44772 13 8 13C8.27642 13 8.52505 12.8892 8.70711 12.7071C8.88917 12.525 9 12.2764 9 12C9 11.7236 8.88917 11.475 8.70711 11.2929C8.52505 11.1108 8.27642 11 8 11ZM14 17C13.7236 17 13.475 17.1108 13.2929 17.2929C13.1108 17.475 13 17.7236 13 18C13 18.5523 13.4477 19 14 19C14.5523 19 15 18.5523 15 18C15 17.4477 14.5523 17 14 17Z" fill="#FFC107"></path> </g></svg>